<?xml version="1.0" standalone="no"?>
<!DOCTYPE svg PUBLIC "-//W3C//DTD SVG 20010904//EN"
 "http://www.w3.org/TR/2001/REC-SVG-20010904/DTD/svg10.dtd">
<svg version="1.0" xmlns="http://www.w3.org/2000/svg"
 width="123.000000pt" height="123.000000pt" viewBox="0 0 123.000000 123.000000"
 preserveAspectRatio="xMidYMid meet">
<metadata>
Created by potrace 1.14, written by Peter Selinger 2001-2017
</metadata>
<g transform="translate(0.000000,123.000000) scale(0.100000,-0.100000)"
fill="#000000" stroke="none">
<path d="M583 1195 c-22 -9 -34 -23 -38 -42 -12 -50 -13 -52 -42 -47 -15 2
-34 7 -41 9 -8 3 -10 0 -6 -8 5 -9 4 -9 -7 1 -7 6 -17 12 -22 12 -4 0 -5 -6
-1 -12 6 -10 5 -10 -7 -1 -23 19 -92 21 -109 3 -8 -8 -12 -11 -8 -6 5 6 8 17
8 25 0 14 -1 14 -10 1 -5 -8 -10 -10 -10 -3 0 6 -13 10 -30 9 -17 -1 -35 1
-42 5 -7 4 -21 3 -31 -3 -13 -7 -17 -7 -13 0 3 6 2 13 -3 17 -5 3 -14 -3 -20
-12 -10 -17 -10 -17 -11 0 0 9 -5 17 -11 17 -5 0 -8 -4 -4 -9 3 -5 1 -13 -5
-16 -6 -4 -9 -1 -8 7 2 9 -8 13 -29 13 -17 0 -30 3 -28 6 2 3 -9 6 -24 6 -27
0 -28 -2 -28 -49 0 -43 1 -47 16 -36 10 8 9 5 -3 -10 -14 -17 -16 -22 -5 -22
10 0 10 -3 3 -8 -7 -4 -12 -36 -12 -75 l0 -69 26 5 c15 3 41 8 57 12 27 7 55
12 78 14 5 1 6 4 4 9 -3 4 7 7 21 8 15 0 41 4 57 7 17 4 46 10 65 13 44 7 45
8 45 52 0 23 5 37 15 39 9 3 11 1 4 -4 -10 -8 -12 -58 -2 -68 2 -3 20 0 39 5
70 20 71 20 64 -77 -3 -49 -8 -106 -10 -128 -2 -22 -7 -76 -10 -120 -3 -44 -7
-105 -10 -135 -2 -30 -7 -89 -10 -130 -14 -185 -16 -190 -45 -190 -28 0 -37
-39 -31 -132 1 -17 21 -18 267 -18 l266 0 -5 37 c-5 33 -22 56 -48 65 -10 3
-18 75 -33 293 -2 28 -7 86 -11 130 -9 112 -13 167 -20 270 -4 50 -8 102 -11
116 -3 22 1 28 21 31 15 3 22 1 18 -5 -4 -6 2 -8 15 -5 12 3 22 2 24 -3 2 -5
19 -11 38 -13 19 -2 43 -7 53 -11 9 -4 24 -4 33 -1 10 4 13 2 8 -6 -5 -8 -2
-9 9 -5 10 3 17 3 17 -2 0 -13 83 -21 97 -9 11 8 12 7 6 -7 -5 -14 -3 -17 10
-12 8 3 17 2 19 -2 2 -5 24 -11 51 -15 39 -6 47 -5 47 9 0 9 -4 14 -9 10 -5
-3 -13 -1 -16 5 -4 6 -1 9 7 8 8 -2 13 7 13 22 0 15 -5 24 -13 22 -8 -1 -11 2
-7 8 3 6 10 8 15 5 5 -3 8 16 7 42 -1 34 -6 47 -15 45 -8 -1 -11 2 -7 8 3 6
10 8 14 6 4 -3 7 12 8 33 1 26 -4 38 -13 38 -8 0 -14 -5 -14 -11 0 -6 -4 -5
-9 3 -5 8 -14 10 -22 5 -7 -4 -28 -8 -46 -7 -27 0 -31 -2 -22 -14 10 -11 8
-12 -6 -7 -11 5 -16 4 -12 -3 3 -5 0 -10 -8 -10 -11 0 -12 4 -4 14 9 10 3 12
-30 10 -22 -1 -41 -4 -41 -7 0 -3 -15 -6 -32 -6 -85 -3 -108 -9 -103 -24 5
-12 4 -13 -6 -2 -16 15 -61 16 -77 0 -9 -9 -12 -9 -12 -1 0 8 -9 9 -29 3 -27
-8 -30 -6 -35 25 -11 58 -66 85 -123 60z m444 -70 c0 -8 -4 -12 -9 -9 -5 3 -6
10 -3 15 9 13 12 11 12 -6z m-756 -12 c13 -16 12 -17 -3 -4 -10 7 -18 15 -18
17 0 8 8 3 21 -13z m-224 -8 c0 -8 -4 -12 -9 -9 -5 3 -6 10 -3 15 9 13 12 11
12 -6z m43 7 c0 -5 -7 -9 -15 -9 -8 0 -12 4 -9 9 3 4 9 8 15 8 5 0 9 -4 9 -8z
m836 -9 c-2 -9 -9 -19 -17 -21 -11 -3 -11 -1 1 7 8 6 11 11 7 11 -5 0 -5 5 -2
10 9 15 14 12 11 -7z m79 7 c3 -5 1 -10 -4 -10 -6 0 -11 5 -11 10 0 6 2 10 4
10 3 0 8 -4 11 -10z m199 1 c-7 -8 -54 -9 -49 -1 2 3 15 6 29 6 14 0 23 -2 20
-5z m-838 -10 c-4 -5 0 -11 6 -14 7 -3 3 -4 -9 -4 -17 1 -19 4 -11 14 12 15
22 18 14 4z m39 0 c3 -5 2 -12 -3 -15 -5 -3 -9 1 -9 9 0 17 3 19 12 6z m443
-4 c8 -10 6 -13 -7 -13 -11 0 -17 6 -14 13 3 7 6 13 8 13 1 0 7 -6 13 -13z
m-678 -7 c0 -5 -5 -10 -11 -10 -5 0 -7 5 -4 10 3 6 8 10 11 10 2 0 4 -4 4 -10z
m72 -12 c-2 -10 -6 -18 -7 -18 -1 0 -5 8 -7 18 -3 11 0 19 7 19 7 0 10 -8 7
-19z m743 4 c-3 -3 -11 0 -18 7 -9 10 -8 11 6 5 10 -3 15 -9 12 -12z m65 4
c-7 -7 -13 -7 -20 0 -6 6 -3 10 10 10 13 0 16 -4 10 -10z m-940 1 c0 -2 -10
-12 -22 -23 l-23 -19 19 23 c18 21 26 27 26 19z m153 -12 c-3 -9 -8 -14 -10
-11 -3 3 -2 9 2 15 9 16 15 13 8 -4z m65 -10 c-3 -3 -9 2 -12 12 -6 14 -5 15
5 6 7 -7 10 -15 7 -18z m175 4 c-8 -8 -13 -7 -18 2 -5 8 -4 10 3 5 7 -4 12 -2
12 5 0 7 3 9 7 6 4 -4 2 -12 -4 -18z m295 13 c15 12 16 11 3 -4 -14 -19 -32
-15 -30 5 0 8 2 8 6 -1 4 -10 8 -10 21 0z m85 -7 c-3 -9 -8 -14 -10 -11 -3 3
-2 9 2 15 9 16 15 13 8 -4z m275 7 c15 12 16 11 3 -4 -7 -10 -18 -15 -24 -11
-6 4 -8 0 -5 -8 4 -10 -1 -15 -12 -15 -17 0 -17 2 -1 22 9 12 18 18 19 13 2
-6 11 -4 20 3z m-711 -8 c-3 -3 -11 -6 -19 -8 -7 -1 -20 -6 -28 -11 -12 -7
-13 -6 -3 6 6 8 22 15 34 16 11 1 19 0 16 -3z m488 -4 c-3 -5 -12 -10 -18 -10
-7 0 -6 4 3 10 19 12 23 12 15 0z m-169 -26 c1 -9 0 -13 -4 -10 -3 4 -7 14 -8
22 -1 9 0 13 4 10 3 -4 7 -14 8 -22z m441 11 c0 -8 -4 -15 -9 -15 -10 0 -11
14 -1 23 9 10 10 9 10 -8z m-723 -4 c3 -5 -2 -15 -12 -22 -15 -13 -16 -12 -4
3 10 13 10 17 0 21 -9 4 -9 6 -1 6 6 1 14 -3 17 -8z m328 2 c-10 -4 -10 -8 0
-21 12 -15 11 -16 -4 -3 -19 14 -15 32 5 30 8 0 8 -2 -1 -6z m153 -11 c-3 -3
-11 0 -18 7 -9 10 -8 11 6 5 10 -3 15 -9 12 -12z m-739 -11 c0 -15 -4 -17 -17
-11 -9 5 -20 6 -24 2 -5 -4 -5 -1 -1 6 4 7 11 10 16 7 5 -3 11 -1 15 5 9 14
11 13 11 -9z m66 4 c15 1 25 -1 23 -5 -8 -13 -59 -4 -63 10 -2 10 -1 11 5 4 4
-6 20 -10 35 -9z m155 -10 c0 -8 -4 -12 -9 -9 -5 3 -6 10 -3 15 9 13 12 11 12
-6z m398 6 c3 -5 2 -12 -3 -15 -5 -3 -9 1 -9 9 0 17 3 19 12 6z m145 -26 c0
-2 -8 -1 -17 2 -16 6 -17 5 -3 -13 14 -18 14 -18 -2 -5 -10 7 -15 18 -11 24 4
6 0 8 -9 5 -8 -4 -15 0 -15 7 0 11 6 11 29 -1 15 -8 28 -17 28 -19z m135 15
c-3 -5 -12 -10 -18 -10 -7 0 -6 4 3 10 19 12 23 12 15 0z m-1082 -17 c-3 -7
-6 -13 -8 -13 -2 0 -5 6 -8 13 -3 8 1 14 8 14 7 0 11 -6 8 -14z m1120 4 c-4
-7 1 -8 13 -4 16 6 17 5 4 -5 -16 -13 -20 -45 -8 -63 4 -6 -3 -12 -15 -12 -12
-1 -17 1 -12 5 12 8 13 61 3 78 -4 6 -1 11 7 11 8 0 11 -5 8 -10z m-263 -12
c-7 -9 -15 -13 -19 -10 -3 3 1 10 9 15 21 14 24 12 10 -5z m144 1 c-3 -8 -13
-17 -22 -21 -13 -5 -13 -2 3 15 21 24 26 25 19 6z m-823 -19 c-10 -9 -11 -8
-5 6 3 10 9 15 12 12 3 -3 0 -11 -7 -18z m39 8 c11 -13 10 -14 -4 -9 -9 3 -16
10 -16 15 0 13 6 11 20 -6z m75 5 c-3 -5 -12 -10 -18 -10 -7 0 -6 4 3 10 19
12 23 12 15 0z m-290 -27 c-1 -10 1 -23 6 -28 5 -7 1 -11 -11 -11 -13 0 -16 5
-11 16 5 8 6 21 4 28 -3 6 0 12 5 12 6 0 9 -8 7 -17z m60 -3 c-3 -5 -12 -10
-18 -10 -7 0 -6 4 3 10 19 12 23 12 15 0z m16 -23 c-10 -9 -11 -8 -5 6 3 10 9
15 12 12 3 -3 0 -11 -7 -18z m969 19 c0 -2 -7 -7 -16 -10 -8 -3 -12 -2 -9 4 6
10 25 14 25 6z"/>
</g>
</svg>
